<?xml version="1.0" encoding="utf-8" ?><svg xmlns="http://www.w3.org/2000/svg" xmlns:xlink="http://www.w3.org/1999/xlink" width="688" height="460" viewBox="0 0 688 460"><path fill="#F27717" d="M191.463 284.75C181.365 256.707 182.804 223.303 191.782 195.148C198.718 173.396 211.623 151.751 226.925 134.92C256.784 102.249 298.281 82.6204 342.473 80.2646C382.052 78.2495 421.102 90.045 452.949 113.635C461.034 119.743 464.99 124.285 472.1 130.768C470.977 132.016 469.037 133.473 467.685 134.56C454.009 147.799 438.988 159.885 424.326 172.008C412.086 182.127 399.698 191.73 386.608 200.729C384.026 202.505 381.311 204.554 378.633 206.156C377.39 207.545 361.112 217.984 358.347 219.808C339.857 231.913 320.527 242.683 300.505 252.037C265.788 268.466 230.006 281.588 191.463 284.75Z"/><defs><linearGradient id="gradient_0" gradientUnits="userSpaceOnUse" x1="316.2016" y1="127.57535" x2="381.17831" y2="206.44974"><stop offset="0" stop-color="#F69723"/><stop offset="1" stop-color="#F8B722"/></linearGradient></defs><path fill="url(#gradient_0)" d="M378.633 206.156C379.161 203.473 382.98 203.309 385.394 200.225L385.278 199.978C383.131 199.426 380.419 202.238 378.462 203.315C352.484 217.621 323.058 227.808 293.764 232.488C283.906 234.062 271.296 234.268 261.467 232.571C256.114 231.587 250.899 226.331 248.224 221.702C244.238 214.806 243.072 207.092 245.383 199.34C252.911 175.761 276.825 157.979 297.423 146.063C309.136 139.287 324.253 133.325 336.812 128.65C342.743 126.442 351.8 122.762 357.442 121.197C383.925 113.855 409.874 114.363 436.257 121.923C444.934 124.409 458.137 128.667 466.351 132.912C466.824 133.156 467.415 134.09 467.685 134.56C454.009 147.799 438.988 159.885 424.326 172.008C412.086 182.127 399.698 191.73 386.608 200.729C384.026 202.505 381.311 204.554 378.633 206.156Z"/><defs><linearGradient id="gradient_1" gradientUnits="userSpaceOnUse" x1="267.15411" y1="392.83762" x2="282.64792" y2="110.26209"><stop offset="0" stop-color="#F59625"/><stop offset="1" stop-color="#F5AD28"/></linearGradient></defs><path fill="url(#gradient_1)" d="M163.632 113.725L164.02 114.693C155.068 120.574 146.658 127.151 138.367 133.928C111.874 155.581 88.4258 180.259 69.7754 209.031C60.62 223.155 52.6027 237.831 49.1742 254.453C45.977 269.954 47.5866 286.393 56.4483 299.793C66.7787 315.414 84.1887 324.251 102.148 327.855C185.778 344.64 287.215 290.037 354.431 245.124C386.374 223.78 416.5 200.021 446.284 175.785C453.054 170.277 459.903 164.853 466.563 159.212C469.632 156.613 472.527 153.814 475.604 151.226C485.298 143.073 496.228 134.775 507.402 128.749C510.842 126.894 514.428 125.423 518.245 124.55C520.741 123.98 523.38 123.624 525.796 122.781C526.792 123.042 529.288 123.51 529.863 124.061C530.353 125.544 531.442 126.815 532.198 128.181C534.672 132.654 536.036 137.426 534.953 142.534C532.905 152.185 517.459 164.821 510.12 171.764C459.99 218.334 405.847 260.387 348.322 297.431C293.692 333.35 230.977 365.161 166.98 379.239C152.098 382.513 137.355 385.095 122.054 385.335C111.084 385.457 100.134 384.387 89.3948 382.144C67.026 377.474 43.398 366.127 30.9003 346.302C-5.35784 288.786 46.2052 217.637 84.9146 176.886C95.0223 166.071 105.801 155.904 117.188 146.446C132.712 133.716 146.899 124.598 163.632 113.725Z"/><defs><linearGradient id="gradient_2" gradientUnits="userSpaceOnUse" x1="411.1347" y1="409.63416" x2="368.86514" y2="322.51721"><stop offset="0" stop-color="#02829E"/><stop offset="1" stop-color="#02A7B6"/></linearGradient></defs><path fill="url(#gradient_2)" d="M549.267 235.288C554.423 234.812 558.144 238.457 560.706 242.491C566.094 250.977 567.08 264.576 564.509 274.187C552.783 318.033 502.897 358.162 466.64 381.162C440.638 397.739 412.514 410.722 383.033 419.758C322.272 437.948 268.988 435.563 207.186 421.646C203.786 421 180.115 415.186 179.284 413.749C180.25 413.347 199.19 411.831 201.929 411.48C212.107 410.17 222.231 408.465 232.277 406.368C341.831 383.114 442.762 318.95 528.081 248.463C533.833 243.711 541.834 236.599 549.267 235.288Z"/><path fill="#099872" d="M541.54 172.794C560.035 171.016 557.34 194.718 549.753 204.715C542.172 215.153 532.163 223.803 522.991 232.793C501.485 253.871 479.58 271.432 455.039 288.91C393.504 332.404 325.374 365.713 253.26 387.56C214.285 399.17 166.956 408.563 126.388 401.736C123.801 401.34 111.072 398.8 110.25 397.023C110.499 396.909 125.807 397.262 127.65 397.188C139.277 396.749 150.864 395.563 162.339 393.637C211.052 385.72 262.066 365.491 305.469 342.12C363.293 310.666 417.654 273.225 467.657 230.412L508.191 195.714C517.279 188.013 530.072 175.662 541.54 172.794Z"/><path fill="#099872" d="M602.561 43.486C606.043 41.136 609.893 39.1766 613.475 36.957C626.838 28.6772 640.919 20.9654 656.776 19.0271C660.075 18.6238 667.863 18.4811 670.095 21.3537C672.244 27.3916 663.986 39.2633 659.967 43.737C650.849 53.8856 639.55 63.5683 628.529 71.563C628.537 80.4983 627.931 97.4441 628.221 107.022C628.386 107.214 628.551 107.406 628.716 107.598C630.203 107.863 631.224 107.479 631.924 108.019C631.757 110.196 630.55 111.57 628.933 112.954C628.575 113.258 628.209 113.553 627.836 113.838C628.306 123.988 627.847 134.392 627.967 144.566C627.989 146.439 628.001 148.508 627.877 150.374C624.879 152.691 620.787 155.494 617.305 156.995C613.968 151.273 608.393 135.933 606.286 129.282C600.949 134.706 599.399 135.006 594.93 128.544C598.05 124.315 599.919 122.735 604.233 119.953C602.757 117.907 595.313 99.8024 594.042 96.3027C591.136 101.468 568.418 111.765 562.098 114.067C562.014 124.409 558.131 141.828 546.213 145.318C545.718 145.463 545.487 145.114 545.213 144.82C547.447 136.765 549.139 127.378 546.071 119.012C545.766 118.181 544.852 117.651 544.028 117.412C539.999 117.55 532.717 123.37 529.863 124.061C529.288 123.51 526.792 123.042 525.796 122.781C527.915 120.09 531.927 111.337 535.784 113.094C536.299 113.985 536.38 114.148 536.697 115.123C537.821 115.191 537.922 115.125 539.026 114.8C537.425 111.474 511.038 102.096 505.714 99.6193C507.371 97.0963 508.508 95.4893 510.644 93.2543C516.082 93.2029 534.365 93.7945 539.281 94.888C544.743 90.4423 550.162 86.0351 555.556 81.5037C559.03 78.5855 564.379 73.2606 568.053 71.0403C565.93 70.0493 554.456 62.4574 552.163 60.76C550.81 61.4721 549.654 62.1286 548.422 62.8767C546.625 63.9685 543.424 67.5077 541.34 66.5479C539.304 65.6096 536.193 60.2409 535.003 58.2933L540.706 53.9772C532.663 49.8759 524.866 45.7754 516.962 41.4232C512.004 38.6928 507.063 36.512 502.101 33.5261C504.106 29.2161 506.907 26.7266 511.117 24.6121C518.355 25.4043 531.349 28.4959 538.864 30.1217C548.465 32.1984 559.987 34.1395 569.359 36.4128C563.703 29.1936 565.531 28.8649 573.689 27.1747C578.303 30.0417 584.648 35.028 586.718 40.1146C591 40.8791 598.737 42.0312 602.561 43.486Z"/><defs><linearGradient id="gradient_3" gradientUnits="userSpaceOnUse" x1="188.96252" y1="316.92856" x2="200.12733" y2="160.04181"><stop offset="0" stop-color="#018599"/><stop offset="1" stop-color="#07B5BD"/></linearGradient></defs><path fill="url(#gradient_3)" d="M200.195 119.058C200.859 119.038 201.431 119.022 202.097 118.953L202.953 119.379C202.981 120.969 201.96 121.089 202.215 122.63C197.305 127.494 189.093 133.327 183.348 138.665C177.298 144.343 171.368 150.147 165.561 156.073C162.965 158.689 159.585 162.34 156.922 164.746C155.436 166.331 153.024 169.064 151.515 170.47C144.8 178.058 137.287 187.54 130.386 194.485C130.31 196.226 130.166 198.91 129.434 200.529C127.577 207.956 121.377 214.09 117.829 221.224C111.341 234.098 103.975 252.128 108.843 266.74C121.116 303.578 170.42 298.391 200.463 294.209C237.686 289.027 270.609 274 304.941 259.878C310.305 257.672 315.197 254.464 320.764 252.835L321.194 252.712C319.791 253.803 318.329 254.814 316.813 255.741C313.334 257.916 301.975 264.836 298.408 265.921C281.489 271.067 266.019 279.273 249.89 286.141C216.096 300.559 181.507 312.393 144.415 313.564C119.216 314.36 89.7902 309.227 74.728 286.563C67.85 276.214 66.9828 261.647 70.1237 249.779C78.2472 219.084 102.789 194.2 125.535 173.274C128.133 170.911 137.088 163.136 139.747 161.491C147.156 155.169 154.364 149.233 162.364 143.637C165.312 141.575 168.852 138.486 171.944 136.821C173.175 134.992 197.078 120.525 200.195 119.058Z"/><path fill="#64DFD3" d="M200.195 119.058C200.859 119.038 201.431 119.022 202.097 118.953L202.953 119.379C202.981 120.969 201.96 121.089 202.215 122.63C197.305 127.494 189.093 133.327 183.348 138.665C177.298 144.343 171.368 150.147 165.561 156.073C162.965 158.689 159.585 162.34 156.922 164.746C155.436 166.331 153.024 169.064 151.515 170.47C144.8 178.058 137.287 187.54 130.386 194.485C128.235 195.802 122.101 201.851 120.024 203.836C118.105 205.811 117.215 206.561 116.182 209.102C116.632 210.16 116.308 209.812 117.366 210.339C114.783 213.534 113.312 213.534 110.172 215.999C109.105 216.836 108.026 218.244 106.872 219.186L108.73 214.801C108.994 211.048 111.787 207.048 112.846 203.397C113.62 200.731 115.532 199.859 114.475 196.961C113.836 196.894 113.732 197.193 113.035 197.717C113.934 196.07 116.859 192.695 118.205 190.985C120.9 187.562 124.232 182.494 127.259 179.468C131.014 174.773 135.287 171.241 139.749 167.233C140.813 164.014 148.242 159.767 148.665 158.851C148.198 157.736 148.244 158.259 147.126 157.476C147.111 157.465 147.31 157.126 146.99 156.529C144.821 157.151 142.945 161.307 139.747 161.491C147.156 155.169 154.364 149.233 162.364 143.637C165.312 141.575 168.852 138.486 171.944 136.821C173.175 134.992 197.078 120.525 200.195 119.058Z"/><path fill="#26C8C9" d="M149.18 170.54L151.515 170.47C144.8 178.058 137.287 187.54 130.386 194.485C128.235 195.802 122.101 201.851 120.024 203.836L119.583 203.808L119.307 203.327C119.613 200.273 135.649 183.09 138.844 179.818C140.835 177.779 146.741 172.818 149.18 170.54Z"/><path fill="#26C8C9" d="M139.747 161.491C147.156 155.169 154.364 149.233 162.364 143.637C165.312 141.575 168.852 138.486 171.944 136.821C170.739 139.617 159.592 145.723 156.811 148.802C157.28 149.447 159.268 149.836 159.948 149.441C162.111 148.184 164.973 143.817 167.323 143.295L167.58 143.519C160.847 149.469 154.007 155.296 147.061 160.996C145.396 162.383 141.266 166.18 139.749 167.233C140.813 164.014 148.242 159.767 148.665 158.851C148.198 157.736 148.244 158.259 147.126 157.476C147.111 157.465 147.31 157.126 146.99 156.529C144.821 157.151 142.945 161.307 139.747 161.491Z"/><path fill="#26C8C9" d="M127.259 179.468C124.913 183.878 119.981 189.272 118.088 192.946L118.094 196.498C118.766 195.62 120.336 193.387 121.151 192.916C121.166 193.345 116.739 199.808 116.113 200.524C114.514 203.354 109.724 213.412 108.73 214.801C108.994 211.048 111.787 207.048 112.846 203.397C113.62 200.731 115.532 199.859 114.475 196.961C113.836 196.894 113.732 197.193 113.035 197.717C113.934 196.07 116.859 192.695 118.205 190.985C120.9 187.562 124.232 182.494 127.259 179.468Z"/><path fill="#26C8C9" d="M149.18 170.54C151.344 168.306 153.86 165.166 156.922 164.746C155.436 166.331 153.024 169.064 151.515 170.47L149.18 170.54Z"/><path fill="#E6F9F7" d="M120.024 203.836C122.101 201.851 128.235 195.802 130.386 194.485C130.31 196.226 130.166 198.91 129.434 200.529C127.158 201.011 119.516 208.388 117.366 210.339C116.308 209.812 116.632 210.16 116.182 209.102C117.215 206.561 118.105 205.811 120.024 203.836Z"/><path fill="#039894" d="M586.258 307.342C587.086 309.426 577.976 324.855 576.099 327.659C546.685 371.606 499.331 403.653 451.131 423.846C442.538 427.445 428.22 432.803 419.073 434.796C421.739 432.674 426.297 430.936 429.478 429.421C443.006 422.976 454.942 415.379 467.049 406.567C468.738 405.242 480.085 396.672 480.269 396.009C479.513 396.126 471.35 399.719 469.45 400.39C460.01 403.758 450.466 406.83 440.833 409.601C436.257 410.951 426.883 413.64 422.171 414.112C423.975 412.88 429.92 410.307 432.251 409.137C439.357 405.571 446.763 402.127 453.711 398.254C483.721 381.481 512.865 363.202 541.032 343.488C553.792 334.734 577.022 319.104 586.258 307.342Z"/><path fill="#0094B4" d="M675.115 104.744C678.192 107.684 673.775 109.14 682.156 111.476C679.031 112.792 677.885 113.139 676.357 116.475C675.909 117.452 676.039 117.638 675.261 118.419C673.332 113.254 672.695 113.271 667.557 111.759C669.493 111.218 671.109 110.67 673.007 109.999C674.227 107.829 674.43 107.165 675.115 104.744Z"/><path fill="#0094B4" d="M575.05 157.1C575.643 157.463 579.69 162.199 580.409 162.998C578.518 164.539 577.708 164.862 576.341 166.913C576.118 167.421 576.29 167.202 575.692 167.469C573.642 166.111 573.023 164.95 572.282 162.69C571.566 160.511 573.341 160.077 574.868 157.421L575.05 157.1Z"/><path fill="#26C8C9" fill-opacity="0.98823529" d="M219.393 108.267L220.151 109.103C216.728 111.31 214.101 113.035 210.866 115.516C208.392 117.414 204.532 121.055 202.215 122.63C201.96 121.089 202.981 120.969 202.953 119.379L202.097 118.953C201.431 119.022 200.859 119.038 200.195 119.058C200.959 118.494 202.046 117.958 202.908 117.525C208.585 114.674 213.961 111.553 219.393 108.267Z"/><path fill="#0094B4" d="M457.55 59.3351C459.604 62.1018 458.009 62.1604 462.18 65.2495C458.845 67.1392 459.736 67.6467 457.524 70.3029L457.355 70.5027L455.93 67.1635L452.469 65.1602C455.838 63.2278 456.531 63.049 457.55 59.3351Z"/><path fill="#0094B4" d="M146.115 211.523C147.349 212.14 148.239 213.166 149.239 214.146C148.7 216.34 147.748 219.545 145.634 220.583C144.811 219.682 142.471 216.267 141.567 215.031C143.727 213.889 144.543 213.345 146.115 211.523Z"/><path fill="#0094B4" d="M639.234 187.729C640.712 189.128 640.838 190.428 643.381 192.493C640.549 194.369 641.172 194.367 639.287 196.723L639.024 197.048C637.462 194.161 637.044 193.907 634.143 192.301C636.855 190.77 637.507 190.3 639.234 187.729Z"/><path fill="#D7A62F" fill-opacity="0.91764706" d="M163.632 113.725C168.063 110.868 178.319 104.128 182.746 102.293L182.996 102.376C179.079 105.538 168.926 111.405 164.02 114.693L163.632 113.725Z"/><path fill="#2BC3E5" fill-opacity="0.95686275" d="M219.393 108.267C220.541 107.495 221.765 106.51 223.105 106.307L223.245 106.729C222.413 107.859 221.353 108.376 220.151 109.103L219.393 108.267Z"/></svg>